<?xml version="1.0" encoding="UTF-8" standalone="no"?>
<!DOCTYPE svg PUBLIC "-//W3C//DTD SVG 1.1//EN"
 "http://www.w3.org/Graphics/SVG/1.1/DTD/svg11.dtd">
<!-- Generated by graphviz version 14.1.3 (20260303.0454)
 -->
<!-- Pages: 1 -->
<svg width="180pt" height="132pt"
 viewBox="0.00 0.00 180.00 132.00" xmlns="http://www.w3.org/2000/svg" xmlns:xlink="http://www.w3.org/1999/xlink">
<g id="graph0" class="graph" transform="scale(1 1) rotate(0) translate(4 128)">
<polygon fill="white" stroke="none" points="-4,4 -4,-128 176.12,-128 176.12,4 -4,4"/>
<g id="clust3" class="cluster">
<title>cluster_associated</title>
</g>
<!-- Influence -->
<g id="node1" class="node">
<title>Influence</title>
<g id="a_node1"><a xlink:href="../Influence" xlink:title="&lt;TABLE&gt;">
<polygon fill="lightgray" stroke="none" points="16.75,-97.88 16.75,-114.12 67.5,-114.12 67.5,-97.88 16.75,-97.88"/>
<text xml:space="preserve" text-anchor="start" x="17.75" y="-101.88" font-family="Arial" font-size="12.00">Influence</text>
<polygon fill="none" stroke="black" points="15.75,-96.88 15.75,-115.12 68.5,-115.12 68.5,-96.88 15.75,-96.88"/>
</a>
</g>
</g>
<!-- AgentInfluence -->
<g id="node2" class="node">
<title>AgentInfluence</title>
<g id="a_node2"><a xlink:href="../AgentInfluence" xlink:title="&lt;TABLE&gt;">
<polygon fill="lightgray" stroke="none" points="1,-25.88 1,-42.12 83.25,-42.12 83.25,-25.88 1,-25.88"/>
<text xml:space="preserve" text-anchor="start" x="2" y="-29.88" font-family="Arial" font-size="12.00">AgentInfluence</text>
<polygon fill="none" stroke="black" points="0,-24.88 0,-43.12 84.25,-43.12 84.25,-24.88 0,-24.88"/>
</a>
</g>
</g>
<!-- AgentInfluence&#45;&gt;Influence -->
<g id="edge1" class="edge">
<title>AgentInfluence&#45;&gt;Influence</title>
<path fill="none" stroke="black" d="M42.12,-51.79C42.12,-59.25 42.12,-68.24 42.12,-76.69"/>
<polygon fill="none" stroke="black" points="38.63,-76.54 42.13,-86.54 45.63,-76.54 38.63,-76.54"/>
</g>
<!-- Invis -->
</g>
</svg>
