<?xml version="1.0" encoding="UTF-8" standalone="no"?>
<!DOCTYPE svg PUBLIC "-//W3C//DTD SVG 1.1//EN"
 "http://www.w3.org/Graphics/SVG/1.1/DTD/svg11.dtd">
<!-- Generated by graphviz version 14.0.2 (20251019.1705)
 -->
<!-- Pages: 1 -->
<svg width="399pt" height="206pt"
 viewBox="0.00 0.00 399.00 206.00" xmlns="http://www.w3.org/2000/svg" xmlns:xlink="http://www.w3.org/1999/xlink">
<g id="graph0" class="graph" transform="scale(1 1) rotate(0) translate(4 202)">
<polygon fill="white" stroke="none" points="-4,4 -4,-202 395.38,-202 395.38,4 -4,4"/>
<g id="clust2" class="cluster">
<title>cluster_associated</title>
</g>
<!-- Insertion -->
<g id="node1" class="node">
<title>Insertion</title>
<g id="a_node1"><a xlink:href="../Insertion" xlink:title="&lt;TABLE&gt;">
<polygon fill="lightgray" stroke="none" points="131.12,-171.88 131.12,-188.12 178.88,-188.12 178.88,-171.88 131.12,-171.88"/>
<text xml:space="preserve" text-anchor="start" x="132.12" y="-175.72" font-family="Arial" font-size="12.00">Insertion</text>
<polygon fill="none" stroke="black" points="130.12,-170.88 130.12,-189.12 179.88,-189.12 179.88,-170.88 130.12,-170.88"/>
</a>
</g>
</g>
<!-- Invis -->
<!-- Insertion&#45;&gt;Invis -->
<!-- owl_Thing -->
<g id="node3" class="node">
<title>owl_Thing</title>
<g id="a_node3"><a xlink:href="https://w3id.org/citydata/imported/owl/Thing" xlink:title="&lt;TABLE&gt;">
<polygon fill="lightgray" stroke="none" points="16.75,-25.88 16.75,-42.12 71.25,-42.12 71.25,-25.88 16.75,-25.88"/>
<text xml:space="preserve" text-anchor="start" x="17.75" y="-29.73" font-family="Arial" font-size="12.00">owl:Thing</text>
<polygon fill="none" stroke="black" points="15.75,-24.88 15.75,-43.12 72.25,-43.12 72.25,-24.88 15.75,-24.88"/>
</a>
</g>
</g>
<!-- Insertion&#45;&gt;owl_Thing -->
<g id="edge4" class="edge">
<title>Insertion&#45;&gt;owl_Thing</title>
<path fill="none" stroke="black" d="M142.05,-162.2C122.75,-137.16 86.29,-89.87 63.68,-60.53"/>
<polygon fill="black" stroke="black" points="66.67,-58.68 57.79,-52.89 61.12,-62.95 66.67,-58.68"/>
<text xml:space="preserve" text-anchor="middle" x="150.94" y="-110.05" font-family="Arial" font-size="11.00"> dictionary </text>
<text xml:space="preserve" text-anchor="middle" x="150.94" y="-96.55" font-family="Arial" font-size="11.00"> «exactly 1» &#160;</text>
</g>
<!-- Insertion&#45;&gt;owl_Thing -->
<g id="edge5" class="edge">
<title>Insertion&#45;&gt;owl_Thing</title>
<path fill="none" stroke="black" d="M168.4,-162.11C181.82,-142.98 198.43,-111.55 183,-89 160.77,-56.51 115.9,-43.56 83.13,-38.41"/>
<polygon fill="black" stroke="black" points="83.99,-34.99 73.6,-37.1 83.03,-41.93 83.99,-34.99"/>
<text xml:space="preserve" text-anchor="middle" x="243.95" y="-110.05" font-family="Arial" font-size="11.00"> insertedKeyEntityPair </text>
<text xml:space="preserve" text-anchor="middle" x="243.95" y="-96.55" font-family="Arial" font-size="11.00"> «min 1» &#160;</text>
</g>
<!-- Derivation -->
<g id="node4" class="node">
<title>Derivation</title>
<g id="a_node4"><a xlink:href="../Derivation" xlink:title="&lt;TABLE&gt;">
<polygon fill="lightgray" stroke="none" points="333.62,-98.88 333.62,-115.12 390.38,-115.12 390.38,-98.88 333.62,-98.88"/>
<text xml:space="preserve" text-anchor="start" x="334.62" y="-102.72" font-family="Arial" font-size="12.00">Derivation</text>
<polygon fill="none" stroke="black" points="332.62,-97.88 332.62,-116.12 391.38,-116.12 391.38,-97.88 332.62,-97.88"/>
</a>
</g>
</g>
<!-- Insertion&#45;&gt;Derivation -->
<g id="edge1" class="edge">
<title>Insertion&#45;&gt;Derivation</title>
<path fill="none" stroke="black" d="M181.83,-173.67C214.9,-166.6 272.43,-152.69 319,-133 321.03,-132.14 323.08,-131.21 325.13,-130.22"/>
<polygon fill="none" stroke="black" points="326.65,-133.37 333.9,-125.65 323.41,-127.17 326.65,-133.37"/>
</g>
<!-- Invis&#45;&gt;owl_Thing -->
</g>
</svg>
