<?xml version="1.0" encoding="UTF-8" standalone="no"?>
<!DOCTYPE svg PUBLIC "-//W3C//DTD SVG 1.1//EN"
 "http://www.w3.org/Graphics/SVG/1.1/DTD/svg11.dtd">
<!-- Generated by graphviz version 14.0.2 (20251019.1705)
 -->
<!-- Pages: 1 -->
<svg width="152pt" height="132pt"
 viewBox="0.00 0.00 152.00 132.00" xmlns="http://www.w3.org/2000/svg" xmlns:xlink="http://www.w3.org/1999/xlink">
<g id="graph0" class="graph" transform="scale(1 1) rotate(0) translate(4 128)">
<polygon fill="white" stroke="none" points="-4,4 -4,-128 147.5,-128 147.5,4 -4,4"/>
<g id="clust2" class="cluster">
<title>cluster_associated</title>
</g>
<!-- Publisher -->
<g id="node1" class="node">
<title>Publisher</title>
<g id="a_node1"><a xlink:href="../Publisher" xlink:title="&lt;TABLE&gt;">
<polygon fill="lightgray" stroke="none" points="1,-81.88 1,-98.12 54,-98.12 54,-81.88 1,-81.88"/>
<text xml:space="preserve" text-anchor="start" x="2" y="-85.72" font-family="Arial" font-size="12.00">Publisher</text>
<polygon fill="none" stroke="black" points="0,-80.88 0,-99.12 55,-99.12 55,-80.88 0,-80.88"/>
</a>
</g>
</g>
<!-- Role -->
<g id="node3" class="node">
<title>Role</title>
<g id="a_node3"><a xlink:href="../Role" xlink:title="&lt;TABLE&gt;">
<polygon fill="lightgray" stroke="none" points="13.75,-9.88 13.75,-26.12 41.25,-26.12 41.25,-9.88 13.75,-9.88"/>
<text xml:space="preserve" text-anchor="start" x="14.75" y="-13.72" font-family="Arial" font-size="12.00">Role</text>
<polygon fill="none" stroke="black" points="12.75,-8.88 12.75,-27.12 42.25,-27.12 42.25,-8.88 12.75,-8.88"/>
</a>
</g>
</g>
<!-- Publisher&#45;&gt;Role -->
<g id="edge1" class="edge">
<title>Publisher&#45;&gt;Role</title>
<path fill="none" stroke="black" d="M27.5,-72.05C27.5,-64.57 27.5,-55.58 27.5,-47.14"/>
<polygon fill="none" stroke="black" points="31,-47.3 27.5,-37.3 24,-47.3 31,-47.3"/>
</g>
<!-- Invis -->
</g>
</svg>
